<?xml version="1.0" standalone="no"?>
<!DOCTYPE svg PUBLIC "-//W3C//DTD SVG 20010904//EN"
 "http://www.w3.org/TR/2001/REC-SVG-20010904/DTD/svg10.dtd">
<svg version="1.0" xmlns="http://www.w3.org/2000/svg"
 width="300.000000pt" height="300.000000pt" viewBox="0 0 300.000000 300.000000"
 preserveAspectRatio="xMidYMid meet">
<metadata>
Created by potrace 1.11, written by Peter Selinger 2001-2013
</metadata>
<g transform="translate(0.000000,300.000000) scale(0.100000,-0.100000)"
fill="#000000" stroke="none">
<path d="M2708 2993 c7 -3 16 -2 19 1 4 3 -2 6 -13 5 -11 0 -14 -3 -6 -6z"/>
<path d="M2868 2977 c13 -14 22 -36 22 -55 0 -17 5 -34 10 -37 6 -3 10 -35 10
-70 0 -61 2 -65 25 -71 14 -3 25 -10 25 -15 0 -5 9 -18 20 -29 l20 -20 0 160
0 160 -77 0 -76 0 21 -23z"/>
<path d="M324 2878 c-4 -7 -3 -8 4 -4 7 4 12 1 12 -8 0 -9 -9 -16 -20 -16 -11
0 -20 -4 -20 -10 0 -5 -9 -10 -19 -10 -14 0 -19 -6 -18 -20 1 -11 8 -20 17
-20 8 0 26 -3 40 -6 20 -4 22 -3 10 5 -12 9 -10 11 13 11 29 0 34 9 16 27 -6
6 -9 17 -6 25 4 9 8 5 12 -9 4 -13 12 -23 19 -23 6 0 21 -3 34 -6 13 -4 22 -2
22 5 0 6 -9 11 -19 11 -13 0 -21 9 -26 30 -5 25 -12 30 -35 30 -16 0 -32 -5
-36 -12z"/>
<path d="M100 2850 c0 -5 5 -10 12 -10 6 0 4 -6 -7 -13 -23 -17 -7 -29 26 -19
27 8 36 31 17 43 -18 12 -48 11 -48 -1z"/>
<path d="M415 2850 c-3 -5 -1 -10 4 -10 6 0 11 5 11 10 0 6 -2 10 -4 10 -3 0
-8 -4 -11 -10z"/>
<path d="M478 2803 c6 -2 18 -2 25 0 6 3 1 5 -13 5 -14 0 -19 -2 -12 -5z"/>
<path d="M158 2773 c7 -3 16 -2 19 1 4 3 -2 6 -13 5 -11 0 -14 -3 -6 -6z"/>
<path d="M55 2760 c3 -6 -6 -11 -22 -11 -18 -1 -22 -3 -10 -6 18 -5 18 -5 0
-19 -17 -13 -17 -13 2 -14 15 0 17 -2 7 -9 -18 -11 29 -24 53 -14 15 5 14 8
-6 19 l-24 13 23 1 c12 0 22 5 22 11 0 6 -7 9 -14 6 -10 -4 -13 -1 -10 7 3 7
-2 16 -11 20 -9 3 -13 2 -10 -4z"/>
<path d="M11 2662 c1 -4 0 -9 -1 -12 -1 -3 -3 -13 -5 -22 -4 -24 27 -23 49 1
16 18 16 19 -13 29 -17 6 -30 8 -30 4z"/>
<path d="M1420 2645 c0 -8 4 -15 10 -15 5 0 7 7 4 15 -4 8 -8 15 -10 15 -2 0
-4 -7 -4 -15z"/>
<path d="M1305 2639 c-9 -13 0 -22 25 -24 25 -2 26 11 1 25 -14 7 -22 7 -26
-1z"/>
<path d="M1360 2600 c-9 -6 -10 -10 -3 -10 6 0 15 5 18 10 8 12 4 12 -15 0z"/>
<path d="M1409 2583 c5 -10 12 -26 15 -37 5 -15 9 -16 21 -6 12 10 15 9 15 -4
0 -10 7 -24 15 -32 20 -21 20 1 0 40 -8 15 -15 35 -15 42 0 9 -11 14 -30 14
-26 0 -29 -3 -21 -17z"/>
<path d="M2960 2560 c0 -5 9 -14 20 -20 17 -9 20 -8 20 10 0 13 -7 20 -20 20
-11 0 -20 -4 -20 -10z"/>
<path d="M1181 2524 c20 -24 49 -37 49 -22 0 8 -14 19 -31 25 -27 10 -29 10
-18 -3z"/>
<path d="M1274 2521 c20 -22 26 -25 26 -13 0 4 -10 13 -22 21 -23 14 -23 14
-4 -8z"/>
<path d="M1624 2489 c5 -31 4 -40 -3 -29 -16 23 -24 4 -15 -37 6 -29 9 -33 12
-15 2 12 8 22 13 22 13 0 11 87 -2 96 -8 5 -9 -6 -5 -37z"/>
<path d="M1492 2472 c-16 -35 -15 -39 8 -52 18 -10 19 -8 16 31 -5 51 -8 54
-24 21z"/>
<path d="M1792 2438 c-7 -7 -12 -18 -12 -25 0 -7 -4 -13 -10 -13 -5 0 -10 -7
-10 -16 0 -8 -4 -13 -10 -9 -5 3 -7 12 -3 20 3 10 -2 15 -16 15 -12 0 -21 -6
-21 -15 0 -8 -7 -15 -15 -15 -8 0 -15 -9 -15 -20 0 -11 -4 -20 -10 -20 -5 0
-10 -9 -10 -20 0 -11 -5 -20 -11 -20 -6 0 -9 9 -6 20 3 11 0 23 -5 26 -12 7
-7 -37 7 -70 6 -14 5 -18 -6 -14 -8 2 -18 27 -23 54 -6 39 -14 52 -33 61 l-26
12 5 -77 c3 -42 2 -68 -3 -57 -7 17 -8 16 -8 -7 -1 -16 -6 -28 -12 -28 -8 0
-9 -4 0 -13 6 -8 8 -17 4 -20 -3 -4 -3 -7 1 -7 3 0 11 10 15 23 9 21 10 20 25
-15 24 -56 21 -176 -10 -385 -3 -24 -9 -41 -14 -38 -4 2 -7 -12 -6 -33 1 -31
-2 -37 -19 -37 -14 0 -19 6 -17 18 2 9 -1 17 -7 17 -5 0 -12 18 -16 40 -4 22
-11 38 -15 35 -11 -7 -40 23 -40 41 0 10 -8 13 -26 10 -14 -3 -35 0 -46 7 -16
9 -22 9 -25 0 -7 -19 -36 -16 -59 6 -17 15 -32 18 -82 14 -34 -2 -70 1 -79 6
-17 10 -17 10 0 11 9 0 17 4 17 9 0 5 9 11 19 14 13 3 21 -1 24 -14 7 -25 24
-24 32 1 3 11 13 20 21 20 11 0 14 11 13 45 -2 24 0 48 4 51 4 4 7 0 7 -9 0
-13 5 -15 24 -7 14 5 26 5 28 1 4 -11 49 -25 47 -14 -5 28 2 34 34 28 17 -4
35 -13 39 -19 5 -6 8 -2 8 11 0 42 19 33 25 -12 9 -53 32 -61 39 -12 10 65 13
148 4 153 -4 3 -8 -6 -8 -20 0 -18 -4 -24 -15 -20 -19 8 -19 23 -1 43 18 21
29 71 16 71 -5 0 -10 18 -10 40 0 22 -5 40 -11 40 -5 0 -9 -8 -8 -17 1 -10 1
-29 0 -43 l-2 -25 -27 33 c-19 23 -33 31 -49 28 -12 -3 -31 4 -44 15 -12 10
-26 16 -31 13 -6 -4 -5 -10 3 -15 11 -7 9 -9 -5 -9 -18 0 -18 -1 -3 -18 10
-10 17 -23 17 -29 0 -6 10 -13 21 -16 15 -4 20 -11 16 -21 -4 -9 -2 -16 3 -16
6 0 10 -7 10 -16 0 -14 2 -14 15 0 17 17 20 30 5 21 -5 -3 -10 -1 -10 4 0 20
48 12 55 -9 8 -25 -3 -43 -21 -36 -8 3 -14 1 -14 -4 0 -6 7 -10 15 -10 11 0
15 -11 14 -42 l-1 -43 -8 34 c-8 33 -27 54 -41 45 -4 -2 -10 2 -13 8 -3 7 -3
-2 0 -19 6 -34 -6 -53 -38 -66 -11 -4 -18 -2 -18 6 0 7 -7 4 -15 -6 -13 -18
-14 -18 -34 2 -11 11 -21 15 -23 10 -2 -6 -11 -7 -20 -4 -9 4 -14 13 -12 20 4
8 -6 16 -25 20 -17 4 -31 10 -31 15 0 5 -19 10 -42 12 -36 3 -43 7 -48 28 -4
15 -9 20 -13 13 -5 -7 -28 -9 -67 -6 -37 3 -60 1 -60 -6 0 -5 -17 -8 -39 -6
-33 4 -41 1 -46 -16 -4 -13 -12 -18 -21 -15 -19 7 -31 -24 -13 -34 7 -5 19 -5
25 1 17 14 5 -31 -12 -48 -10 -10 -16 -10 -28 3 -9 8 -21 12 -28 8 -10 -6 -10
-4 -2 7 6 8 11 27 12 43 2 33 17 54 47 67 19 9 19 9 -2 5 -12 -2 -24 1 -26 8
-2 6 -8 7 -13 3 -5 -4 -2 -12 6 -17 8 -6 10 -10 4 -10 -6 0 -19 -18 -29 -40
-10 -22 -21 -40 -26 -40 -4 0 -15 -3 -25 -7 -13 -5 -16 -3 -11 10 4 11 1 17
-8 17 -8 0 -15 5 -15 11 0 8 -5 8 -15 -1 -13 -11 -15 -7 -15 29 0 26 -4 40
-10 36 -5 -3 -10 -16 -10 -28 0 -13 -8 -33 -17 -47 -16 -22 -16 -23 1 -17 14
6 17 3 12 -9 -3 -8 -6 -19 -6 -23 0 -5 -11 -6 -25 -3 -14 2 -25 0 -26 -4 -5
-54 -4 -60 14 -61 42 -4 62 -48 32 -73 -8 -7 -15 -20 -16 -29 0 -11 -2 -12 -6
-3 -3 7 -18 27 -34 45 -16 17 -29 39 -29 49 0 22 -8 23 -31 2 -17 -16 -19 -15
-29 10 -13 35 -13 43 1 48 6 2 10 12 8 23 -7 32 -36 -7 -43 -59 -8 -50 0 -78
15 -55 7 11 9 10 9 -3 0 -21 -37 -48 -56 -41 -13 5 -15 -27 -5 -99 1 -5 7 -8
15 -8 18 0 23 -36 16 -112 -3 -31 -2 -54 2 -52 4 3 8 -4 8 -15 0 -12 5 -21 11
-21 6 0 9 -6 7 -12 -3 -7 -11 -13 -19 -13 -14 0 -27 -19 -28 -42 -1 -9 6 -10
22 -4 12 4 28 6 35 4 6 -3 12 0 12 5 0 14 109 59 161 66 31 5 60 2 85 -8 55
-20 145 -30 142 -15 -6 24 22 19 32 -5 12 -33 32 -144 31 -173 0 -13 4 -23 9
-23 6 0 13 -8 17 -17 10 -29 35 -53 54 -53 10 0 22 -6 26 -13 14 -22 130 -35
207 -24 54 7 70 7 76 -4 5 -7 6 -17 4 -21 -3 -4 -1 -8 5 -8 5 0 14 7 19 16 8
15 10 15 15 -1 4 -9 11 -13 17 -10 5 3 10 3 10 0 0 -3 -15 -12 -32 -20 l-33
-14 28 -1 c28 0 36 -14 15 -24 -7 -3 0 -3 17 0 16 3 33 10 36 16 3 5 17 8 30
6 18 -2 24 2 24 15 0 10 7 22 16 27 9 5 16 23 17 42 0 18 8 38 18 45 10 7 13
13 8 13 -6 0 -11 16 -12 35 -1 26 4 38 16 42 9 3 30 15 46 26 15 11 39 21 52
23 21 2 24 -1 21 -32 -1 -22 -6 -33 -14 -30 -23 9 3 -38 28 -51 21 -11 25 -9
39 12 18 30 30 32 30 5 0 -11 6 -20 14 -20 8 0 15 -14 18 -34 2 -23 0 -32 -8
-29 -7 2 -15 -1 -20 -8 -4 -7 -3 -10 4 -5 5 3 12 0 15 -6 3 -10 7 -10 21 1 9
8 18 12 19 10 1 -2 9 -16 17 -31 18 -37 49 -38 42 -2 -3 19 2 30 19 42 13 9
27 16 31 15 4 -2 18 1 31 6 21 8 25 18 31 80 6 54 4 79 -7 101 -13 25 -13 31
0 50 12 17 13 26 4 43 -7 12 -12 36 -11 52 0 17 -3 51 -6 78 -4 33 -3 47 6 47
7 0 11 -9 8 -23 -4 -22 12 -47 30 -47 5 0 7 11 4 25 -3 16 0 25 8 25 7 0 10
-7 6 -15 -3 -9 0 -15 8 -15 24 0 46 -64 45 -127 -1 -32 -1 -67 0 -78 2 -20 2
-20 16 -1 15 19 15 19 15 -1 0 -12 5 -25 10 -28 6 -3 10 -15 10 -26 0 -10 6
-19 13 -19 6 0 25 -7 41 -15 18 -10 55 -15 105 -14 139 1 155 29 155 277 -1
95 3 168 7 161 8 -14 29 -3 29 16 0 7 -7 16 -16 19 -11 4 -14 13 -10 31 13 50
-77 91 -183 82 -45 -3 -59 -10 -97 -45 -39 -36 -45 -47 -51 -94 -3 -29 -10
-58 -15 -65 -5 -6 -13 -24 -18 -40 l-8 -28 -1 30 c-1 18 -10 37 -26 50 -22 17
-25 29 -26 80 -1 33 -6 68 -11 78 -5 10 -9 50 -9 89 0 52 -4 75 -16 87 -16 15
-16 15 -10 -1 9 -25 9 -25 -64 13 -15 8 -24 8 -32 0 -21 -21 -37 -12 -37 20 0
25 4 30 21 27 29 -4 47 25 30 46 -17 20 -31 21 -31 1 0 -27 -28 -16 -35 13 -3
17 -13 28 -24 29 -15 1 -18 -5 -16 -37 2 -37 2 -38 -28 -29 -36 10 -33 6 -40
56 -4 37 -2 45 25 68 16 14 37 25 46 24 32 -3 42 1 42 17 0 12 -6 15 -27 10
-25 -6 -26 -5 -11 7 24 19 42 67 25 67 -7 0 -18 -5 -25 -12z m-47 -88 c-3 -5
-10 -10 -16 -10 -5 0 -9 5 -9 10 0 6 7 10 16 10 8 0 12 -4 9 -10z m-68 -92
c-3 -8 -6 -5 -6 6 -1 11 2 17 5 13 3 -3 4 -12 1 -19z m-527 -178 c10 -14 21
-18 35 -14 16 5 18 4 8 -7 -10 -10 -23 -10 -58 -2 -39 9 -47 8 -55 -6 -8 -13
-9 -14 -10 -1 0 20 11 36 30 43 26 10 35 7 50 -13z m760 5 c0 -8 -2 -15 -4
-15 -2 0 -6 7 -10 15 -3 8 -1 15 4 15 6 0 10 -7 10 -15z m40 -11 c0 -8 -5 -12
-10 -9 -6 4 -8 11 -5 16 9 14 15 11 15 -7z m-973 -46 c-3 -7 -5 -2 -5 12 0 14
2 19 5 13 2 -7 2 -19 0 -25z m67 6 c3 -8 2 -12 -4 -9 -6 3 -10 10 -10 16 0 14
7 11 14 -7z m926 -16 c0 -18 0 -46 0 -62 1 -37 -13 -52 -29 -32 -10 12 -10 19
3 37 10 16 12 27 6 40 -11 19 -4 49 11 49 5 0 9 -15 9 -32z m-848 -40 c-6 -6
-7 0 -4 19 5 21 7 23 10 9 2 -10 0 -22 -6 -28z m-216 -33 c-6 -22 -3 -25 23
-25 16 0 33 4 36 10 3 5 19 7 35 3 19 -3 30 -1 30 6 0 18 14 13 29 -11 13 -21
13 -22 -1 -10 -13 10 -17 10 -21 -1 -6 -16 3 -32 21 -33 6 -1 22 -2 34 -2 28
-2 14 -14 -37 -31 -97 -31 -125 -53 -125 -100 0 -28 -20 -69 -36 -75 -11 -4
-13 1 -8 22 l6 27 -25 -25 c-63 -62 -77 -71 -102 -68 l-26 3 21 22 c11 13 23
36 26 53 4 16 11 30 16 30 5 0 6 -4 3 -10 -10 -16 15 -12 32 6 14 13 14 17 2
25 -8 5 -20 9 -26 9 -15 0 -17 16 -3 25 6 3 10 16 10 27 0 12 17 36 40 56 30
25 38 37 30 47 -12 14 -3 45 12 45 6 0 7 -11 4 -25z m182 -20 c-3 -3 -9 2 -12
12 -6 14 -5 15 5 6 7 -7 10 -15 7 -18z m900 -70 c2 -17 -3 -38 -11 -49 -9 -13
-14 -14 -14 -5 0 8 -3 31 -7 52 -6 34 -5 38 11 35 12 -2 19 -14 21 -33z m-51
-62 c-3 -3 -10 -2 -16 2 -7 4 -7 10 2 20 10 11 13 11 15 -2 2 -8 1 -17 -1 -20z
m293 -5 c0 -6 -11 -8 -25 -6 -14 3 -28 1 -31 -3 -10 -17 -34 -9 -34 12 0 17 5
20 25 17 14 -3 28 -1 31 4 7 10 34 -9 34 -24z m-1470 14 c0 -5 -7 -9 -15 -9
-8 0 -12 4 -9 9 3 4 9 8 15 8 5 0 9 -4 9 -8z m1397 -124 c-3 -7 -5 -2 -5 12 0
14 2 19 5 13 2 -7 2 -19 0 -25z m-939 -47 c3 -8 -1 -12 -9 -9 -7 2 -15 10 -17
17 -3 8 1 12 9 9 7 -2 15 -10 17 -17z m492 -247 c0 -8 -4 -12 -10 -9 -5 3 -10
10 -10 16 0 5 5 9 10 9 6 0 10 -7 10 -16z"/>
<path d="M917 1883 c-15 -14 -6 -31 12 -26 12 3 17 11 14 19 -6 15 -16 18 -26
7z"/>
<path d="M1800 2308 c0 -8 7 -15 15 -15 18 0 15 19 -3 25 -7 2 -12 -3 -12 -10z"/>
<path d="M1275 2300 c-3 -5 1 -10 9 -10 9 0 16 5 16 10 0 6 -4 10 -9 10 -6 0
-13 -4 -16 -10z"/>
<path d="M1730 2254 c0 -14 4 -23 10 -19 5 3 6 13 3 22 -5 12 -3 14 7 8 9 -5
11 -4 6 3 -12 20 -26 13 -26 -14z"/>
<path d="M1266 2238 c3 -5 10 -6 15 -3 13 9 11 12 -6 12 -8 0 -12 -4 -9 -9z"/>
<path d="M520 2195 c0 -3 7 -14 16 -23 15 -14 16 -14 13 3 -4 17 -29 35 -29
20z"/>
<path d="M861 2186 c2 -2 15 -9 29 -15 24 -11 24 -11 6 3 -16 13 -49 24 -35
12z"/>
<path d="M1286 2161 c-3 -5 -15 -7 -26 -4 -12 3 -20 0 -20 -6 0 -7 4 -10 9 -6
6 3 14 -2 18 -10 8 -14 11 -13 27 4 10 11 13 21 7 25 -5 4 -12 2 -15 -3z"/>
<path d="M586 2133 c-4 -5 -12 -8 -18 -8 -6 0 -14 -10 -19 -22 -12 -34 13 -29
39 7 20 26 18 43 -2 23z"/>
<path d="M2587 1873 c-12 -11 -8 -23 7 -23 8 0 16 7 20 15 5 15 -14 21 -27 8z"/>
<path d="M1571 1366 c7 -15 15 -23 17 -16 3 7 -3 19 -13 28 -15 16 -16 15 -4
-12z"/>
<path d="M2140 1001 c-8 -5 -45 -12 -82 -16 -37 -3 -70 -11 -73 -16 -4 -5 -17
-9 -31 -9 -13 0 -24 -5 -24 -10 0 -6 -12 -28 -26 -49 -22 -34 -25 -46 -20 -97
6 -73 25 -165 37 -180 10 -12 1 -72 -13 -91 -11 -14 29 -6 50 10 9 7 12 3 12
-14 0 -13 4 -30 9 -37 4 -7 6 -25 3 -39 -3 -18 -7 -21 -13 -11 -10 16 -12 -2
-3 -26 6 -15 8 -15 20 1 12 16 13 17 14 1 0 -19 -14 -30 -39 -32 -9 -1 -40
-12 -68 -26 -44 -21 -53 -30 -53 -51 0 -28 -22 -54 -35 -41 -5 4 -5 2 -1 -5 4
-7 -2 -17 -13 -22 -24 -13 -54 -14 -46 -2 3 6 -10 8 -30 5 -26 -3 -38 0 -47
15 -9 15 -17 17 -34 11 -12 -5 -25 -5 -30 0 -5 4 -31 2 -59 -5 -31 -8 -77 -11
-123 -8 -65 5 -72 8 -67 24 6 17 0 19 -42 19 -44 1 -47 2 -29 15 11 8 18 15
15 16 -2 0 -12 3 -21 5 -10 3 -31 7 -48 11 -16 3 -30 11 -30 19 0 7 -14 14
-32 16 -27 2 -34 8 -36 28 -3 26 -44 59 -113 92 -20 10 -39 24 -43 33 -3 8
-10 15 -15 15 -13 0 -3 -31 14 -45 23 -20 64 -131 70 -193 5 -52 3 -63 -10
-69 -23 -8 -105 78 -105 111 0 25 -16 36 -55 36 -26 0 -40 -28 -30 -60 4 -11
3 -34 0 -51 -5 -24 -11 -29 -23 -23 -10 4 -32 8 -50 10 -18 1 -39 7 -47 14
-10 8 -15 9 -15 2 0 -6 9 -16 21 -23 21 -11 21 -11 -6 -25 -15 -8 -37 -14 -48
-14 -16 0 -18 -3 -10 -11 7 -7 51 -11 120 -10 274 4 266 4 279 -14 7 -9 17
-15 21 -12 5 3 15 2 23 -3 7 -5 25 -4 39 1 28 11 439 9 471 -2 11 -4 124 -10
284 -15 141 -4 172 -2 192 11 13 8 36 15 51 16 27 0 27 1 6 9 -16 6 -23 18
-23 35 0 21 -5 25 -28 25 l-29 0 16 50 c17 55 27 62 41 28 5 -13 9 -18 9 -11
1 7 21 21 45 32 34 14 45 26 50 48 5 22 16 33 41 42 37 13 77 59 90 101 34
108 53 297 36 343 -6 15 -22 32 -36 37 -14 5 -38 21 -53 36 -15 14 -38 30 -52
36 -33 14 -101 19 -120 9z m-70 -621 c9 -17 7 -19 -18 -17 -22 1 -28 6 -24 20
6 23 29 22 42 -3z m-1170 -81 c0 -17 -4 -28 -10 -24 -5 3 -10 17 -10 31 0 13
5 24 10 24 6 0 10 -14 10 -31z"/>
<path d="M1405 835 c71 -16 155 -19 155 -5 0 6 -21 10 -47 11 -27 0 -75 2
-108 4 l-60 4 60 -14z"/>
<path d="M603 762 c-25 -4 -26 -7 -14 -36 7 -19 8 -19 28 1 11 11 29 25 39 31
16 9 15 10 -6 9 -14 -1 -35 -3 -47 -5z"/>
<path d="M1323 763 c-18 -2 -33 -7 -33 -11 0 -15 56 -29 81 -20 27 10 137 12
172 4 20 -6 20 -5 2 3 -60 26 -137 34 -222 24z"/>
<path d="M681 756 c2 -2 14 -9 26 -15 19 -10 22 -9 17 4 -4 8 -15 15 -27 15
-11 0 -18 -2 -16 -4z"/>
<path d="M2603 722 c-33 -5 -53 -94 -55 -242 -1 -78 2 -85 41 -86 20 -1 39 4
43 10 5 8 11 7 20 -2 22 -22 48 -14 49 16 2 23 2 24 6 5 5 -25 43 -33 43 -9 0
15 -35 32 -57 28 -15 -3 -22 24 -43 193 -6 44 -14 82 -18 85 -4 3 -17 4 -29 2z"/>
<path d="M1233 693 c-13 -2 -23 -9 -23 -15 0 -5 7 -7 16 -4 9 3 48 6 87 7 51
1 65 3 47 9 -27 9 -91 10 -127 3z"/>
<path d="M397 599 c-9 -13 -19 -37 -23 -54 -7 -29 -31 -58 -73 -87 -15 -11
-23 -33 -30 -81 -9 -66 -30 -123 -31 -84 0 9 -4 17 -10 17 -16 0 -50 -33 -50
-48 0 -10 -5 -9 -17 5 -10 10 -15 14 -11 9 4 -5 0 -15 -8 -23 -20 -20 -18 -33
5 -33 11 0 27 10 35 22 16 22 16 22 16 2 0 -20 5 -21 83 -18 45 2 112 3 150 3
41 0 67 4 67 10 0 6 5 11 11 11 6 0 8 -8 4 -19 -4 -15 -1 -20 12 -20 10 1 35
-2 55 -6 25 -5 43 -3 53 5 19 16 19 40 0 40 -8 0 -15 4 -15 9 0 5 -14 12 -30
16 -17 4 -35 16 -42 28 -6 12 -22 32 -35 44 -12 12 -23 34 -23 48 0 14 -4 25
-10 25 -6 0 -9 6 -8 13 2 6 -5 11 -14 9 -10 -2 -18 2 -18 8 0 6 4 8 10 5 6 -4
8 5 5 22 -3 15 -6 47 -8 71 -2 23 -11 50 -19 59 -15 14 -17 13 -31 -8z"/>
<path d="M870 610 c0 -5 11 -10 25 -10 14 0 25 5 25 10 0 6 -11 10 -25 10 -14
0 -25 -4 -25 -10z"/>
<path d="M521 364 c0 -11 3 -14 6 -6 3 7 2 16 -1 19 -3 4 -6 -2 -5 -13z"/>
<path d="M80 260 c-9 -6 -10 -10 -3 -10 6 0 15 5 18 10 8 12 4 12 -15 0z"/>
<path d="M65 220 c-3 -5 -1 -10 4 -10 6 0 11 5 11 10 0 6 -2 10 -4 10 -3 0 -8
-4 -11 -10z"/>
</g>
</svg>
